<?xml version="1.0" encoding="utf-8"?>
<!-- Svg Vector Icons : http://www.onlinewebfonts.com/icon -->
<!DOCTYPE svg PUBLIC "-//W3C//DTD SVG 1.1//EN" "http://www.w3.org/Graphics/SVG/1.1/DTD/svg11.dtd">
<svg version="1.1" xmlns="http://www.w3.org/2000/svg" xmlns:xlink="http://www.w3.org/1999/xlink" x="0px" y="0px" viewBox="0 0 1000 1000" enable-background="new 0 0 1000 1000" xml:space="preserve">
<metadata> Svg Vector Icons : http://www.onlinewebfonts.com/icon </metadata>
<g><path d="M841.5,10H158.5C76.6,10,10,76.6,10,158.5v682.9c0,82,66.6,148.6,148.5,148.6h682.9c82,0,148.6-66.6,148.6-148.5V158.5C990,76.6,923.4,10,841.5,10z M928.8,841.5c0,48.1-39.1,87.3-87.3,87.3H158.5c-48.1,0-87.3-39.1-87.3-87.3V158.5c0-48.1,39.1-87.3,87.3-87.3h682.9c48.2,0,87.3,39.1,87.3,87.3V841.5z"/><path d="M780.8,254.4L373.3,661.9L219.2,507.7c-15.4-15.4-40.4-15.4-55.9,0c-15.4,15.4-15.4,40.4,0,55.9l182,182c7.7,7.7,17.9,11.6,28.1,11.6s20.3-3.8,28-11.6l435.3-435.3c15.4-15.4,15.4-40.4,0-55.9C821.3,239,796.2,239,780.8,254.4z"/></g>
</svg>